<mxfile host="app.diagrams.net" modified="2022-12-14T05:48:32.795Z" agent="5.0 (Windows NT 10.0; Win64; x64) AppleWebKit/537.36 (KHTML, like Gecko) Chrome/108.0.0.0 Safari/537.36" etag="2Cv_m_Y57r1XoPWKIpBP" version="20.6.0" type="github" pages="3">
  <diagram id="V2agxWNDqFFHkdYsPJiL" name="HashMap">
    <mxGraphModel dx="2062" dy="1199" grid="1" gridSize="10" guides="1" tooltips="1" connect="1" arrows="1" fold="1" page="1" pageScale="1" pageWidth="827" pageHeight="1169" math="0" shadow="0">
      <root>
        <mxCell id="0" />
        <mxCell id="1" parent="0" />
        <mxCell id="HIqjcw73Yl3vF48u5pDZ-1" value="" style="rounded=0;whiteSpace=wrap;html=1;strokeWidth=2;" parent="1" vertex="1">
          <mxGeometry x="50" y="230" width="80" height="60" as="geometry" />
        </mxCell>
        <mxCell id="HIqjcw73Yl3vF48u5pDZ-2" value="" style="rounded=0;whiteSpace=wrap;html=1;strokeWidth=2;" parent="1" vertex="1">
          <mxGeometry x="130" y="230" width="80" height="60" as="geometry" />
        </mxCell>
        <mxCell id="HIqjcw73Yl3vF48u5pDZ-4" value="" style="rounded=0;whiteSpace=wrap;html=1;strokeWidth=2;" parent="1" vertex="1">
          <mxGeometry x="210" y="230" width="80" height="60" as="geometry" />
        </mxCell>
        <mxCell id="HIqjcw73Yl3vF48u5pDZ-19" style="edgeStyle=orthogonalEdgeStyle;rounded=0;orthogonalLoop=1;jettySize=auto;html=1;entryX=0.5;entryY=0;entryDx=0;entryDy=0;strokeWidth=2;" parent="1" source="HIqjcw73Yl3vF48u5pDZ-5" target="HIqjcw73Yl3vF48u5pDZ-14" edge="1">
          <mxGeometry relative="1" as="geometry">
            <Array as="points">
              <mxPoint x="360" y="160" />
              <mxPoint x="1090" y="160" />
            </Array>
          </mxGeometry>
        </mxCell>
        <mxCell id="HIqjcw73Yl3vF48u5pDZ-20" value="扩容：初始化容量：16，扩容因子0.75，2倍扩容" style="edgeLabel;html=1;align=center;verticalAlign=middle;resizable=0;points=[];fontSize=14;" parent="HIqjcw73Yl3vF48u5pDZ-19" vertex="1" connectable="0">
          <mxGeometry x="-0.0506" y="-3" relative="1" as="geometry">
            <mxPoint as="offset" />
          </mxGeometry>
        </mxCell>
        <mxCell id="HIqjcw73Yl3vF48u5pDZ-5" value="" style="rounded=0;whiteSpace=wrap;html=1;strokeWidth=2;" parent="1" vertex="1">
          <mxGeometry x="290" y="230" width="80" height="60" as="geometry" />
        </mxCell>
        <mxCell id="HIqjcw73Yl3vF48u5pDZ-7" value="" style="rounded=0;whiteSpace=wrap;html=1;strokeWidth=2;" parent="1" vertex="1">
          <mxGeometry x="370" y="230" width="80" height="60" as="geometry" />
        </mxCell>
        <mxCell id="HIqjcw73Yl3vF48u5pDZ-8" value="" style="rounded=0;whiteSpace=wrap;html=1;strokeWidth=2;" parent="1" vertex="1">
          <mxGeometry x="450" y="230" width="80" height="60" as="geometry" />
        </mxCell>
        <mxCell id="HIqjcw73Yl3vF48u5pDZ-9" value="" style="rounded=0;whiteSpace=wrap;html=1;strokeWidth=2;" parent="1" vertex="1">
          <mxGeometry x="530" y="230" width="80" height="60" as="geometry" />
        </mxCell>
        <mxCell id="HIqjcw73Yl3vF48u5pDZ-10" value="" style="rounded=0;whiteSpace=wrap;html=1;strokeWidth=2;" parent="1" vertex="1">
          <mxGeometry x="610" y="230" width="80" height="60" as="geometry" />
        </mxCell>
        <mxCell id="HIqjcw73Yl3vF48u5pDZ-11" value="" style="rounded=0;whiteSpace=wrap;html=1;strokeWidth=2;" parent="1" vertex="1">
          <mxGeometry x="810" y="230" width="80" height="60" as="geometry" />
        </mxCell>
        <mxCell id="HIqjcw73Yl3vF48u5pDZ-12" value="" style="rounded=0;whiteSpace=wrap;html=1;strokeWidth=2;" parent="1" vertex="1">
          <mxGeometry x="890" y="230" width="80" height="60" as="geometry" />
        </mxCell>
        <mxCell id="HIqjcw73Yl3vF48u5pDZ-13" value="" style="rounded=0;whiteSpace=wrap;html=1;strokeWidth=2;" parent="1" vertex="1">
          <mxGeometry x="970" y="230" width="80" height="60" as="geometry" />
        </mxCell>
        <mxCell id="HIqjcw73Yl3vF48u5pDZ-14" value="" style="rounded=0;whiteSpace=wrap;html=1;strokeWidth=2;" parent="1" vertex="1">
          <mxGeometry x="1050" y="230" width="80" height="60" as="geometry" />
        </mxCell>
        <mxCell id="HIqjcw73Yl3vF48u5pDZ-15" value="" style="rounded=0;whiteSpace=wrap;html=1;strokeWidth=2;" parent="1" vertex="1">
          <mxGeometry x="1130" y="230" width="80" height="60" as="geometry" />
        </mxCell>
        <mxCell id="HIqjcw73Yl3vF48u5pDZ-16" value="" style="rounded=0;whiteSpace=wrap;html=1;strokeWidth=2;" parent="1" vertex="1">
          <mxGeometry x="1210" y="230" width="80" height="60" as="geometry" />
        </mxCell>
        <mxCell id="HIqjcw73Yl3vF48u5pDZ-17" value="" style="rounded=0;whiteSpace=wrap;html=1;strokeWidth=2;" parent="1" vertex="1">
          <mxGeometry x="1290" y="230" width="80" height="60" as="geometry" />
        </mxCell>
        <mxCell id="HIqjcw73Yl3vF48u5pDZ-18" value="" style="rounded=0;whiteSpace=wrap;html=1;strokeWidth=2;" parent="1" vertex="1">
          <mxGeometry x="1370" y="230" width="80" height="60" as="geometry" />
        </mxCell>
        <mxCell id="HIqjcw73Yl3vF48u5pDZ-42" value="" style="edgeStyle=orthogonalEdgeStyle;rounded=0;orthogonalLoop=1;jettySize=auto;html=1;fontSize=18;strokeWidth=2;" parent="1" source="HIqjcw73Yl3vF48u5pDZ-21" target="HIqjcw73Yl3vF48u5pDZ-22" edge="1">
          <mxGeometry relative="1" as="geometry" />
        </mxCell>
        <mxCell id="HIqjcw73Yl3vF48u5pDZ-21" value="node&lt;br style=&quot;font-size: 16px;&quot;&gt;K&amp;nbsp; V" style="rounded=0;whiteSpace=wrap;html=1;strokeWidth=2;fillColor=#1ba1e2;strokeColor=#006EAF;fontColor=#ffffff;fontSize=16;" parent="1" vertex="1">
          <mxGeometry x="50" y="230" width="80" height="60" as="geometry" />
        </mxCell>
        <mxCell id="HIqjcw73Yl3vF48u5pDZ-43" style="edgeStyle=orthogonalEdgeStyle;rounded=0;orthogonalLoop=1;jettySize=auto;html=1;entryX=0.5;entryY=0;entryDx=0;entryDy=0;fontSize=18;strokeWidth=2;" parent="1" source="HIqjcw73Yl3vF48u5pDZ-22" target="HIqjcw73Yl3vF48u5pDZ-23" edge="1">
          <mxGeometry relative="1" as="geometry" />
        </mxCell>
        <mxCell id="HIqjcw73Yl3vF48u5pDZ-22" value="node&lt;br style=&quot;font-size: 16px;&quot;&gt;K&amp;nbsp; V" style="rounded=0;whiteSpace=wrap;html=1;strokeWidth=2;fillColor=#1ba1e2;strokeColor=#006EAF;fontColor=#ffffff;fontSize=16;" parent="1" vertex="1">
          <mxGeometry x="50" y="330" width="80" height="60" as="geometry" />
        </mxCell>
        <mxCell id="HIqjcw73Yl3vF48u5pDZ-44" style="edgeStyle=orthogonalEdgeStyle;rounded=0;orthogonalLoop=1;jettySize=auto;html=1;entryX=0.5;entryY=0;entryDx=0;entryDy=0;fontSize=18;strokeWidth=2;" parent="1" source="HIqjcw73Yl3vF48u5pDZ-23" target="HIqjcw73Yl3vF48u5pDZ-24" edge="1">
          <mxGeometry relative="1" as="geometry" />
        </mxCell>
        <mxCell id="HIqjcw73Yl3vF48u5pDZ-23" value="node&lt;br style=&quot;font-size: 16px;&quot;&gt;K&amp;nbsp; V" style="rounded=0;whiteSpace=wrap;html=1;strokeWidth=2;fillColor=#1ba1e2;strokeColor=#006EAF;fontColor=#ffffff;fontSize=16;" parent="1" vertex="1">
          <mxGeometry x="50" y="430" width="80" height="60" as="geometry" />
        </mxCell>
        <mxCell id="HIqjcw73Yl3vF48u5pDZ-45" style="edgeStyle=orthogonalEdgeStyle;rounded=0;orthogonalLoop=1;jettySize=auto;html=1;entryX=0.5;entryY=0;entryDx=0;entryDy=0;fontSize=18;strokeWidth=2;" parent="1" source="HIqjcw73Yl3vF48u5pDZ-24" target="HIqjcw73Yl3vF48u5pDZ-25" edge="1">
          <mxGeometry relative="1" as="geometry" />
        </mxCell>
        <mxCell id="HIqjcw73Yl3vF48u5pDZ-24" value="node&lt;br style=&quot;font-size: 16px;&quot;&gt;K&amp;nbsp; V" style="rounded=0;whiteSpace=wrap;html=1;strokeWidth=2;fillColor=#1ba1e2;strokeColor=#006EAF;fontColor=#ffffff;fontSize=16;" parent="1" vertex="1">
          <mxGeometry x="50" y="530" width="80" height="60" as="geometry" />
        </mxCell>
        <mxCell id="HIqjcw73Yl3vF48u5pDZ-46" style="edgeStyle=orthogonalEdgeStyle;rounded=0;orthogonalLoop=1;jettySize=auto;html=1;entryX=0.5;entryY=0;entryDx=0;entryDy=0;fontSize=18;strokeWidth=2;" parent="1" source="HIqjcw73Yl3vF48u5pDZ-25" target="HIqjcw73Yl3vF48u5pDZ-26" edge="1">
          <mxGeometry relative="1" as="geometry" />
        </mxCell>
        <mxCell id="HIqjcw73Yl3vF48u5pDZ-25" value="node&lt;br style=&quot;font-size: 16px;&quot;&gt;K&amp;nbsp; V" style="rounded=0;whiteSpace=wrap;html=1;strokeWidth=2;fillColor=#1ba1e2;strokeColor=#006EAF;fontColor=#ffffff;fontSize=16;" parent="1" vertex="1">
          <mxGeometry x="50" y="640" width="80" height="60" as="geometry" />
        </mxCell>
        <mxCell id="HIqjcw73Yl3vF48u5pDZ-47" style="edgeStyle=orthogonalEdgeStyle;rounded=0;orthogonalLoop=1;jettySize=auto;html=1;entryX=0.5;entryY=0;entryDx=0;entryDy=0;fontSize=18;strokeWidth=2;" parent="1" source="HIqjcw73Yl3vF48u5pDZ-26" target="HIqjcw73Yl3vF48u5pDZ-27" edge="1">
          <mxGeometry relative="1" as="geometry" />
        </mxCell>
        <mxCell id="HIqjcw73Yl3vF48u5pDZ-26" value="node&lt;br style=&quot;font-size: 16px;&quot;&gt;K&amp;nbsp; V" style="rounded=0;whiteSpace=wrap;html=1;strokeWidth=2;fillColor=#1ba1e2;strokeColor=#006EAF;fontColor=#ffffff;fontSize=16;" parent="1" vertex="1">
          <mxGeometry x="50" y="750" width="80" height="60" as="geometry" />
        </mxCell>
        <mxCell id="HIqjcw73Yl3vF48u5pDZ-27" value="node&lt;br style=&quot;font-size: 16px;&quot;&gt;K&amp;nbsp; V" style="rounded=0;whiteSpace=wrap;html=1;strokeWidth=2;fillColor=#1ba1e2;strokeColor=#006EAF;fontColor=#ffffff;fontSize=16;" parent="1" vertex="1">
          <mxGeometry x="50" y="850" width="80" height="60" as="geometry" />
        </mxCell>
        <mxCell id="HIqjcw73Yl3vF48u5pDZ-28" value="Data" style="rounded=0;whiteSpace=wrap;html=1;strokeWidth=2;fillColor=#e51400;fontColor=#ffffff;strokeColor=#19202B;fontSize=18;" parent="1" vertex="1">
          <mxGeometry x="760" y="30" width="80" height="60" as="geometry" />
        </mxCell>
        <mxCell id="HIqjcw73Yl3vF48u5pDZ-34" style="edgeStyle=orthogonalEdgeStyle;rounded=0;orthogonalLoop=1;jettySize=auto;html=1;entryX=0;entryY=0.5;entryDx=0;entryDy=0;fontSize=18;strokeWidth=2;" parent="1" source="HIqjcw73Yl3vF48u5pDZ-29" target="HIqjcw73Yl3vF48u5pDZ-30" edge="1">
          <mxGeometry relative="1" as="geometry" />
        </mxCell>
        <mxCell id="HIqjcw73Yl3vF48u5pDZ-29" value="Next" style="rounded=0;whiteSpace=wrap;html=1;strokeWidth=2;fontSize=18;" parent="1" vertex="1">
          <mxGeometry x="840" y="30" width="80" height="60" as="geometry" />
        </mxCell>
        <mxCell id="HIqjcw73Yl3vF48u5pDZ-30" value="Data" style="rounded=0;whiteSpace=wrap;html=1;strokeWidth=2;fillColor=#e51400;fontColor=#ffffff;strokeColor=#19202B;fontSize=18;" parent="1" vertex="1">
          <mxGeometry x="980" y="30" width="80" height="60" as="geometry" />
        </mxCell>
        <mxCell id="HIqjcw73Yl3vF48u5pDZ-35" style="edgeStyle=orthogonalEdgeStyle;rounded=0;orthogonalLoop=1;jettySize=auto;html=1;entryX=0;entryY=0.5;entryDx=0;entryDy=0;fontSize=18;strokeWidth=2;" parent="1" source="HIqjcw73Yl3vF48u5pDZ-31" target="HIqjcw73Yl3vF48u5pDZ-32" edge="1">
          <mxGeometry relative="1" as="geometry" />
        </mxCell>
        <mxCell id="HIqjcw73Yl3vF48u5pDZ-31" value="Next" style="rounded=0;whiteSpace=wrap;html=1;strokeWidth=2;fontSize=18;" parent="1" vertex="1">
          <mxGeometry x="1060" y="30" width="80" height="60" as="geometry" />
        </mxCell>
        <mxCell id="HIqjcw73Yl3vF48u5pDZ-32" value="Data" style="rounded=0;whiteSpace=wrap;html=1;strokeWidth=2;fillColor=#e51400;fontColor=#ffffff;strokeColor=#19202B;fontSize=18;" parent="1" vertex="1">
          <mxGeometry x="1220" y="30" width="80" height="60" as="geometry" />
        </mxCell>
        <mxCell id="HIqjcw73Yl3vF48u5pDZ-33" value="Next" style="rounded=0;whiteSpace=wrap;html=1;strokeWidth=2;fontSize=18;" parent="1" vertex="1">
          <mxGeometry x="1300" y="30" width="80" height="60" as="geometry" />
        </mxCell>
        <mxCell id="HIqjcw73Yl3vF48u5pDZ-36" value="" style="rounded=0;whiteSpace=wrap;html=1;strokeWidth=2;fontSize=18;" parent="1" vertex="1">
          <mxGeometry x="60" y="40" width="80" height="60" as="geometry" />
        </mxCell>
        <mxCell id="HIqjcw73Yl3vF48u5pDZ-37" value="" style="rounded=0;whiteSpace=wrap;html=1;strokeWidth=2;fontSize=18;" parent="1" vertex="1">
          <mxGeometry x="140" y="40" width="80" height="60" as="geometry" />
        </mxCell>
        <mxCell id="HIqjcw73Yl3vF48u5pDZ-38" value="" style="rounded=0;whiteSpace=wrap;html=1;strokeWidth=2;fontSize=18;" parent="1" vertex="1">
          <mxGeometry x="220" y="40" width="80" height="60" as="geometry" />
        </mxCell>
        <mxCell id="HIqjcw73Yl3vF48u5pDZ-39" value="" style="rounded=0;whiteSpace=wrap;html=1;strokeWidth=2;fontSize=18;" parent="1" vertex="1">
          <mxGeometry x="300" y="40" width="80" height="60" as="geometry" />
        </mxCell>
        <mxCell id="HIqjcw73Yl3vF48u5pDZ-40" value="node&lt;br style=&quot;font-size: 16px;&quot;&gt;K&amp;nbsp; V" style="rounded=0;whiteSpace=wrap;html=1;strokeWidth=2;fillColor=#1ba1e2;strokeColor=#006EAF;fontColor=#ffffff;fontSize=16;" parent="1" vertex="1">
          <mxGeometry x="290" y="230" width="80" height="60" as="geometry" />
        </mxCell>
        <mxCell id="HIqjcw73Yl3vF48u5pDZ-64" style="edgeStyle=orthogonalEdgeStyle;rounded=0;orthogonalLoop=1;jettySize=auto;html=1;entryX=0.5;entryY=0;entryDx=0;entryDy=0;fontSize=18;strokeWidth=2;exitX=0.5;exitY=1;exitDx=0;exitDy=0;" parent="1" source="HIqjcw73Yl3vF48u5pDZ-41" target="HIqjcw73Yl3vF48u5pDZ-50" edge="1">
          <mxGeometry relative="1" as="geometry" />
        </mxCell>
        <mxCell id="HIqjcw73Yl3vF48u5pDZ-68" style="edgeStyle=orthogonalEdgeStyle;rounded=0;orthogonalLoop=1;jettySize=auto;html=1;fontSize=18;strokeWidth=2;" parent="1" target="HIqjcw73Yl3vF48u5pDZ-51" edge="1">
          <mxGeometry relative="1" as="geometry">
            <mxPoint x="570" y="300" as="sourcePoint" />
            <Array as="points">
              <mxPoint x="570" y="350" />
              <mxPoint x="740" y="350" />
            </Array>
          </mxGeometry>
        </mxCell>
        <mxCell id="HIqjcw73Yl3vF48u5pDZ-41" value="node&lt;br style=&quot;font-size: 16px;&quot;&gt;K&amp;nbsp; V" style="rounded=0;whiteSpace=wrap;html=1;strokeWidth=2;fillColor=#19202B;strokeColor=#006EAF;fontColor=#ffffff;fontSize=16;" parent="1" vertex="1">
          <mxGeometry x="530" y="230" width="80" height="60" as="geometry" />
        </mxCell>
        <mxCell id="HIqjcw73Yl3vF48u5pDZ-48" value="" style="shape=flexArrow;endArrow=classic;html=1;rounded=0;fontSize=18;strokeWidth=2;width=26;endSize=11.2;endWidth=31;" parent="1" edge="1">
          <mxGeometry width="50" height="50" relative="1" as="geometry">
            <mxPoint x="140" y="439.5" as="sourcePoint" />
            <mxPoint x="250" y="439.5" as="targetPoint" />
          </mxGeometry>
        </mxCell>
        <mxCell id="HIqjcw73Yl3vF48u5pDZ-49" value="树化&amp;gt;8" style="edgeLabel;html=1;align=center;verticalAlign=middle;resizable=0;points=[];fontSize=18;" parent="HIqjcw73Yl3vF48u5pDZ-48" vertex="1" connectable="0">
          <mxGeometry x="-0.42" y="-1" relative="1" as="geometry">
            <mxPoint as="offset" />
          </mxGeometry>
        </mxCell>
        <mxCell id="HIqjcw73Yl3vF48u5pDZ-66" style="edgeStyle=orthogonalEdgeStyle;rounded=0;orthogonalLoop=1;jettySize=auto;html=1;entryX=0.5;entryY=0;entryDx=0;entryDy=0;fontSize=18;strokeWidth=2;exitX=0.5;exitY=1;exitDx=0;exitDy=0;" parent="1" source="HIqjcw73Yl3vF48u5pDZ-50" target="HIqjcw73Yl3vF48u5pDZ-52" edge="1">
          <mxGeometry relative="1" as="geometry" />
        </mxCell>
        <mxCell id="HIqjcw73Yl3vF48u5pDZ-67" style="edgeStyle=orthogonalEdgeStyle;rounded=0;orthogonalLoop=1;jettySize=auto;html=1;entryX=0.5;entryY=0;entryDx=0;entryDy=0;fontSize=18;strokeWidth=2;exitX=0.5;exitY=1;exitDx=0;exitDy=0;" parent="1" source="HIqjcw73Yl3vF48u5pDZ-50" target="HIqjcw73Yl3vF48u5pDZ-53" edge="1">
          <mxGeometry relative="1" as="geometry" />
        </mxCell>
        <mxCell id="HIqjcw73Yl3vF48u5pDZ-50" value="node&lt;br style=&quot;font-size: 16px;&quot;&gt;K&amp;nbsp; V" style="rounded=0;whiteSpace=wrap;html=1;strokeWidth=2;fillColor=#e51400;strokeColor=#B20000;fontColor=#ffffff;fontSize=16;" parent="1" vertex="1">
          <mxGeometry x="374" y="410" width="80" height="60" as="geometry" />
        </mxCell>
        <mxCell id="HIqjcw73Yl3vF48u5pDZ-69" style="edgeStyle=orthogonalEdgeStyle;rounded=0;orthogonalLoop=1;jettySize=auto;html=1;entryX=0.5;entryY=0;entryDx=0;entryDy=0;fontSize=18;strokeWidth=2;exitX=0.5;exitY=1;exitDx=0;exitDy=0;" parent="1" source="HIqjcw73Yl3vF48u5pDZ-51" target="HIqjcw73Yl3vF48u5pDZ-55" edge="1">
          <mxGeometry relative="1" as="geometry" />
        </mxCell>
        <mxCell id="HIqjcw73Yl3vF48u5pDZ-70" style="edgeStyle=orthogonalEdgeStyle;rounded=0;orthogonalLoop=1;jettySize=auto;html=1;fontSize=18;strokeWidth=2;exitX=0.5;exitY=1;exitDx=0;exitDy=0;" parent="1" source="HIqjcw73Yl3vF48u5pDZ-51" target="HIqjcw73Yl3vF48u5pDZ-54" edge="1">
          <mxGeometry relative="1" as="geometry" />
        </mxCell>
        <mxCell id="HIqjcw73Yl3vF48u5pDZ-51" value="node&lt;br style=&quot;font-size: 16px;&quot;&gt;K&amp;nbsp; V" style="rounded=0;whiteSpace=wrap;html=1;strokeWidth=2;fillColor=#19202B;strokeColor=#006EAF;fontColor=#ffffff;fontSize=16;" parent="1" vertex="1">
          <mxGeometry x="700" y="410" width="80" height="60" as="geometry" />
        </mxCell>
        <mxCell id="HIqjcw73Yl3vF48u5pDZ-52" value="node&lt;br style=&quot;font-size: 16px;&quot;&gt;K&amp;nbsp; V" style="rounded=0;whiteSpace=wrap;html=1;strokeWidth=2;fillColor=#19202B;strokeColor=#006EAF;fontColor=#ffffff;fontSize=16;" parent="1" vertex="1">
          <mxGeometry x="270" y="530" width="80" height="60" as="geometry" />
        </mxCell>
        <mxCell id="HIqjcw73Yl3vF48u5pDZ-53" value="node&lt;br style=&quot;font-size: 16px;&quot;&gt;K&amp;nbsp; V" style="rounded=0;whiteSpace=wrap;html=1;strokeWidth=2;fillColor=#19202B;strokeColor=#006EAF;fontColor=#ffffff;fontSize=16;" parent="1" vertex="1">
          <mxGeometry x="480" y="530" width="80" height="60" as="geometry" />
        </mxCell>
        <mxCell id="HIqjcw73Yl3vF48u5pDZ-54" value="node&lt;br style=&quot;font-size: 16px;&quot;&gt;K&amp;nbsp; V" style="rounded=0;whiteSpace=wrap;html=1;strokeWidth=2;fillColor=#19202B;strokeColor=#006EAF;fontColor=#ffffff;fontSize=16;" parent="1" vertex="1">
          <mxGeometry x="810" y="530" width="80" height="60" as="geometry" />
        </mxCell>
        <mxCell id="HIqjcw73Yl3vF48u5pDZ-77" style="edgeStyle=orthogonalEdgeStyle;rounded=0;orthogonalLoop=1;jettySize=auto;html=1;entryX=0.5;entryY=0;entryDx=0;entryDy=0;fontSize=18;strokeWidth=2;" parent="1" source="HIqjcw73Yl3vF48u5pDZ-55" target="HIqjcw73Yl3vF48u5pDZ-76" edge="1">
          <mxGeometry relative="1" as="geometry" />
        </mxCell>
        <mxCell id="HIqjcw73Yl3vF48u5pDZ-55" value="node&lt;br style=&quot;font-size: 16px;&quot;&gt;K&amp;nbsp; V" style="rounded=0;whiteSpace=wrap;html=1;strokeWidth=2;fillColor=#e51400;strokeColor=#B20000;fontColor=#ffffff;fontSize=16;" parent="1" vertex="1">
          <mxGeometry x="600" y="530" width="80" height="60" as="geometry" />
        </mxCell>
        <mxCell id="HIqjcw73Yl3vF48u5pDZ-71" value="" style="shape=flexArrow;endArrow=classic;html=1;rounded=0;fontSize=18;strokeWidth=2;width=26;endSize=11.2;endWidth=31;" parent="1" edge="1">
          <mxGeometry width="50" height="50" relative="1" as="geometry">
            <mxPoint x="260" y="570" as="sourcePoint" />
            <mxPoint x="140" y="570" as="targetPoint" />
            <Array as="points">
              <mxPoint x="190" y="570" />
            </Array>
          </mxGeometry>
        </mxCell>
        <mxCell id="HIqjcw73Yl3vF48u5pDZ-72" value="链化&amp;lt;6" style="edgeLabel;html=1;align=center;verticalAlign=middle;resizable=0;points=[];fontSize=18;" parent="HIqjcw73Yl3vF48u5pDZ-71" vertex="1" connectable="0">
          <mxGeometry x="-0.42" y="-1" relative="1" as="geometry">
            <mxPoint x="-5" as="offset" />
          </mxGeometry>
        </mxCell>
        <mxCell id="HIqjcw73Yl3vF48u5pDZ-73" value="Node[] = new Node[]{&lt;br&gt;&lt;span style=&quot;white-space: pre&quot;&gt; &lt;/span&gt;K&amp;nbsp; k;&lt;br&gt;&lt;span style=&quot;white-space: pre&quot;&gt; &lt;/span&gt;V&amp;nbsp; v;&lt;br&gt;&lt;span style=&quot;white-space: pre&quot;&gt; &lt;/span&gt;int hash;&lt;br&gt;&lt;span style=&quot;white-space: pre&quot;&gt; &lt;/span&gt;Node next;&lt;br&gt;}&lt;br&gt;&lt;br&gt;-------------------------------------------------------------------------&lt;br&gt;" style="shape=note;whiteSpace=wrap;html=1;backgroundOutline=1;darkOpacity=0.05;fontSize=18;strokeColor=#d6b656;strokeWidth=2;fillColor=#fff2cc;align=left;verticalAlign=top;" parent="1" vertex="1">
          <mxGeometry x="930" y="350" width="540" height="330" as="geometry" />
        </mxCell>
        <mxCell id="HIqjcw73Yl3vF48u5pDZ-76" value="node&lt;br style=&quot;font-size: 16px;&quot;&gt;K&amp;nbsp; V" style="rounded=0;whiteSpace=wrap;html=1;strokeWidth=2;fillColor=#19202B;strokeColor=#006EAF;fontColor=#ffffff;fontSize=16;" parent="1" vertex="1">
          <mxGeometry x="600" y="640" width="80" height="60" as="geometry" />
        </mxCell>
      </root>
    </mxGraphModel>
  </diagram>
  <diagram id="PqU6XKnSJiI_Fe4cj9Xz" name="IO">
    <mxGraphModel dx="2062" dy="1199" grid="1" gridSize="10" guides="1" tooltips="1" connect="1" arrows="1" fold="1" page="1" pageScale="1" pageWidth="827" pageHeight="1169" math="0" shadow="0">
      <root>
        <mxCell id="dT-EOZCpM1YtZctSJPvW-0" />
        <mxCell id="dT-EOZCpM1YtZctSJPvW-1" parent="dT-EOZCpM1YtZctSJPvW-0" />
        <mxCell id="dT-EOZCpM1YtZctSJPvW-5" value="字节流" style="rounded=1;whiteSpace=wrap;html=1;strokeWidth=2;fontSize=18;" parent="dT-EOZCpM1YtZctSJPvW-1" vertex="1">
          <mxGeometry x="80" y="40" width="160" height="60" as="geometry" />
        </mxCell>
        <mxCell id="KV1hFmPK3kj2N8YV8X4--1" value="字符流" style="rounded=1;whiteSpace=wrap;html=1;strokeWidth=2;fontSize=18;" parent="dT-EOZCpM1YtZctSJPvW-1" vertex="1">
          <mxGeometry x="320" y="40" width="160" height="60" as="geometry" />
        </mxCell>
        <mxCell id="KV1hFmPK3kj2N8YV8X4--2" value="Inputstream" style="rounded=1;whiteSpace=wrap;html=1;strokeWidth=2;fontSize=18;" parent="dT-EOZCpM1YtZctSJPvW-1" vertex="1">
          <mxGeometry x="80" y="160" width="160" height="60" as="geometry" />
        </mxCell>
      </root>
    </mxGraphModel>
  </diagram>
  <diagram id="k8xeLrfVUR2BciNuWX-m" name="网络五层模型">
    <mxGraphModel dx="2062" dy="1199" grid="1" gridSize="10" guides="1" tooltips="1" connect="1" arrows="1" fold="1" page="1" pageScale="1" pageWidth="827" pageHeight="1169" math="0" shadow="0">
      <root>
        <mxCell id="0" />
        <mxCell id="1" parent="0" />
        <mxCell id="ZKzacaG47hmkdaqjfysh-3" style="edgeStyle=orthogonalEdgeStyle;rounded=0;orthogonalLoop=1;jettySize=auto;html=1;entryX=0;entryY=0.5;entryDx=0;entryDy=0;fontSize=22;strokeWidth=2;startArrow=classic;startFill=1;" edge="1" parent="1" source="ZKzacaG47hmkdaqjfysh-1" target="ZKzacaG47hmkdaqjfysh-2">
          <mxGeometry relative="1" as="geometry" />
        </mxCell>
        <mxCell id="ZKzacaG47hmkdaqjfysh-6" value="物理层" style="edgeLabel;html=1;align=center;verticalAlign=middle;resizable=0;points=[];fontSize=18;fontStyle=1" vertex="1" connectable="0" parent="ZKzacaG47hmkdaqjfysh-3">
          <mxGeometry x="-0.1502" y="1" relative="1" as="geometry">
            <mxPoint y="-14" as="offset" />
          </mxGeometry>
        </mxCell>
        <mxCell id="ZKzacaG47hmkdaqjfysh-1" value="电脑 A" style="rounded=0;whiteSpace=wrap;html=1;strokeWidth=2;fontSize=22;fontStyle=1" vertex="1" parent="1">
          <mxGeometry x="60" y="130" width="150" height="110" as="geometry" />
        </mxCell>
        <mxCell id="ZKzacaG47hmkdaqjfysh-2" value="电脑 B" style="rounded=0;whiteSpace=wrap;html=1;strokeWidth=2;fontSize=22;fontStyle=1" vertex="1" parent="1">
          <mxGeometry x="960" y="130" width="140" height="110" as="geometry" />
        </mxCell>
        <mxCell id="ZKzacaG47hmkdaqjfysh-10" style="edgeStyle=orthogonalEdgeStyle;rounded=0;orthogonalLoop=1;jettySize=auto;html=1;entryX=0;entryY=0.5;entryDx=0;entryDy=0;strokeWidth=2;fontSize=18;startArrow=classic;startFill=1;exitX=0.5;exitY=1;exitDx=0;exitDy=0;" edge="1" parent="1" source="ZKzacaG47hmkdaqjfysh-4" target="ZKzacaG47hmkdaqjfysh-9">
          <mxGeometry relative="1" as="geometry" />
        </mxCell>
        <mxCell id="ZKzacaG47hmkdaqjfysh-4" value="网卡&lt;br&gt;MAC 地址" style="rounded=0;whiteSpace=wrap;html=1;strokeWidth=2;fontSize=14;fontStyle=1" vertex="1" parent="1">
          <mxGeometry x="90" y="220" width="90" height="50" as="geometry" />
        </mxCell>
        <mxCell id="ZKzacaG47hmkdaqjfysh-5" value="网卡&lt;br&gt;MAC 地址" style="rounded=0;whiteSpace=wrap;html=1;strokeWidth=2;fontSize=14;fontStyle=1" vertex="1" parent="1">
          <mxGeometry x="985" y="220" width="90" height="50" as="geometry" />
        </mxCell>
        <mxCell id="ZKzacaG47hmkdaqjfysh-7" value="电脑 C" style="rounded=0;whiteSpace=wrap;html=1;strokeWidth=2;fontSize=22;fontStyle=1" vertex="1" parent="1">
          <mxGeometry x="960" y="490" width="140" height="110" as="geometry" />
        </mxCell>
        <mxCell id="ZKzacaG47hmkdaqjfysh-8" value="网卡&lt;br&gt;MAC 地址" style="rounded=0;whiteSpace=wrap;html=1;strokeWidth=2;fontSize=14;fontStyle=1" vertex="1" parent="1">
          <mxGeometry x="985" y="580" width="90" height="50" as="geometry" />
        </mxCell>
        <mxCell id="ZKzacaG47hmkdaqjfysh-11" style="edgeStyle=orthogonalEdgeStyle;rounded=0;orthogonalLoop=1;jettySize=auto;html=1;entryX=0.5;entryY=1;entryDx=0;entryDy=0;strokeWidth=2;fontSize=18;startArrow=classic;startFill=1;" edge="1" parent="1" source="ZKzacaG47hmkdaqjfysh-9" target="ZKzacaG47hmkdaqjfysh-5">
          <mxGeometry relative="1" as="geometry" />
        </mxCell>
        <mxCell id="ZKzacaG47hmkdaqjfysh-12" style="edgeStyle=orthogonalEdgeStyle;rounded=0;orthogonalLoop=1;jettySize=auto;html=1;entryX=0.5;entryY=1;entryDx=0;entryDy=0;strokeWidth=2;fontSize=18;startArrow=classic;startFill=1;exitX=0.5;exitY=1;exitDx=0;exitDy=0;" edge="1" parent="1" source="ZKzacaG47hmkdaqjfysh-9" target="ZKzacaG47hmkdaqjfysh-8">
          <mxGeometry relative="1" as="geometry" />
        </mxCell>
        <mxCell id="ZKzacaG47hmkdaqjfysh-9" value="交换机" style="ellipse;whiteSpace=wrap;html=1;aspect=fixed;strokeWidth=2;fontSize=18;" vertex="1" parent="1">
          <mxGeometry x="460" y="370" width="80" height="80" as="geometry" />
        </mxCell>
      </root>
    </mxGraphModel>
  </diagram>
</mxfile>
